<svg id="svg" version="1.1" viewBox="0 0 300 300" width="300" height="300" xmlns="http://www.w3.org/2000/svg"><svg xmlns="http://www.w3.org/2000/svg"><defs><clipPath id="clip-1"><rect x="0" y="0" transform="scale(0.14648,0.14648)" width="2048" height="2048" fill="none"/></clipPath></defs><g clip-path="url(#clip-1)" fill="none" fill-rule="nonzero" stroke="none" stroke-width="1" stroke-linecap="butt" stroke-linejoin="miter" stroke-miterlimit="10" stroke-dasharray="" stroke-dashoffset="0" font-family="none" font-weight="none" font-size="none" text-anchor="none" style="mix-blend-mode: normal"><path d="M0,0h300v300h-300z" fill="#fefefe"/><path d="M144.3646,77.64448l44.37759,-0.00908l13.87793,-0.00425c5.12109,-0.00059 8.96045,-0.12847 14.0625,0.63384c5.8374,0.89414 11.47266,2.79624 16.6582,5.62148c10.51465,5.79053 19.96582,15.95903 23.06543,27.6769c7.37109,27.86836 -6.84229,51.77256 -34.14551,59.57871c1.7168,2.03467 3.66504,4.69629 5.33203,6.84229l8.62793,11.00977c8.47852,10.83545 17.35107,22.07813 25.6626,33.0249c-9.58008,-0.1377 -19.56738,0.00586 -29.18262,0.00586l-55.72852,-72.01758l21.19922,-0.00293c11.63965,0 21.27686,1.40625 30.34424,-7.51348c9.17578,-9.02607 9.08789,-25.02334 0.07471,-34.00986c-3.22705,-3.21021 -7.25391,-5.4999 -11.66162,-6.63223c-5.26904,-1.33975 -16.11768,-1.04561 -21.86279,-1.04663l-26.96191,0.02036c0.25342,22.73394 0.01758,45.95039 0.01904,68.73311l0.00146,52.22314l-9.89062,0.00293c-4.97021,-7.06348 -10.60547,-13.77979 -15.77241,-20.72607c-8.21221,-11.03906 -16.36377,-21.92725 -24.84639,-32.76416c-2.71069,4.26709 -5.32573,8.44482 -7.92231,12.78076c-1.98882,3.32227 -4.48799,6.52002 -6.49424,9.85986c-2.80723,4.67432 -5.38228,9.43359 -8.46138,13.93652c-1.82651,-4.67285 -4.91191,-10.98486 -7.07476,-15.62988l-9.57524,-20.77588l-26.87197,-58.27529l-9.32373,-20.13589c-1.78184,-3.83716 -3.70562,-7.80571 -5.36733,-11.68154l26.02529,-0.15366c1.47246,3.59634 3.43901,7.69761 5.05752,11.27124l8.95474,19.81025c7.00122,15.47769 14.00918,31.45327 21.19673,46.81626l19.3752,-27.40562c6.24917,8.30581 12.779,16.64399 19.13584,24.88169c2.66089,3.38525 5.28604,6.79834 7.87515,10.23926z" fill="#000000"/></g></svg></svg>