<?xml version="1.0" encoding="UTF-8"?>
<svg version="1.1" xmlns="http://www.w3.org/2000/svg" width="1024" height="1024">
<path d="M0 0 C337.92 0 675.84 0 1024 0 C1024 337.92 1024 675.84 1024 1024 C686.08 1024 348.16 1024 0 1024 C0 686.08 0 348.16 0 0 Z " fill="#FBFBFB" transform="translate(0,0)"/>
<path d="M0 0 C29.45273993 -0.06863889 58.90547604 -0.12163229 88.35827933 -0.15319599 C91.84619351 -0.1569475 95.33410754 -0.16083052 98.82202148 -0.16479492 C99.51631682 -0.16558185 100.21061216 -0.16636878 100.92594675 -0.16717956 C112.12474159 -0.18018518 123.32348958 -0.20381189 134.52225675 -0.23145839 C146.03831417 -0.2596482 157.55433885 -0.27598061 169.0704301 -0.28226548 C175.5282743 -0.28615715 181.98601274 -0.2952251 188.44382286 -0.31719017 C194.53818776 -0.33774857 200.63240463 -0.34379518 206.72680092 -0.33932304 C208.94815504 -0.34013967 211.16951478 -0.34598879 213.39083862 -0.35761642 C258.01242995 -0.57947793 295.9216432 12.68968059 331.4375 39.5 C332.00001465 39.92152344 332.5625293 40.34304688 333.14208984 40.77734375 C334.46787237 41.80202204 335.74016105 42.89525084 337 44 C337 44.66 337 45.32 337 46 C337.53753906 46.20625 338.07507813 46.4125 338.62890625 46.625 C360.5756984 59.35197008 375.97918313 92.72329177 383 116 C386.19206741 128.37592721 388.77453903 141.19381692 389 154 C389.02433105 154.73541016 389.04866211 155.47082031 389.07373047 156.22851562 C389.96225007 184.19756749 384.77951524 211.97709146 372 237 C371.64534668 237.69706055 371.29069336 238.39412109 370.92529297 239.11230469 C358.98789476 262.19234855 340.80718604 281.85479824 319 296 C318.4136377 296.38800781 317.82727539 296.77601563 317.22314453 297.17578125 C302.06403356 307.11291291 285.4285961 314.15601868 268 319 C268 322.08689629 269.76653235 323.56709689 271.625 326 C272.01961426 326.51836426 272.41422852 327.03672852 272.82080078 327.57080078 C274.20713862 329.38580541 275.60255957 331.19353039 277 333 C277.53560547 333.69319336 278.07121094 334.38638672 278.62304688 335.10058594 C285.92656481 344.54161686 293.28946762 353.93619673 300.67333984 363.31445312 C303.40930256 366.79054562 306.14112894 370.26989097 308.87353516 373.7487793 C311.1754131 376.67914934 313.47876258 379.60833865 315.78515625 382.53515625 C321.91256584 390.31461098 327.97588976 398.14036199 334 406 C344.1925295 419.28578472 354.45730634 432.51505778 364.81616211 445.67163086 C369.16428385 451.19847462 373.47765074 456.75216588 377.79101562 462.30615234 C381.04519647 466.4940714 384.30990985 470.67320072 387.5925293 474.83886719 C400 490.58441023 400 490.58441023 400 493 C387.23056081 493.23194785 374.46162457 493.40950748 361.69050598 493.51812172 C355.75987214 493.57025886 349.83068188 493.64094362 343.90087891 493.75439453 C338.17545448 493.86324662 332.4514161 493.92288233 326.72503662 493.94877243 C324.54321472 493.96721572 322.3614667 494.00323423 320.18023682 494.05730057 C303.08206393 494.46416452 303.08206393 494.46416452 297.95150757 490.85621643 C295.8937661 488.31680037 294.4547108 485.91550441 293 483 C291.93809349 481.56513213 290.85122189 480.14794835 289.7265625 478.76171875 C288.69163628 477.40446262 287.65779375 476.04637952 286.625 474.6875 C285.49491596 473.20563437 284.36470643 471.72386443 283.234375 470.2421875 C282.68587891 469.52256836 282.13738281 468.80294922 281.57226562 468.06152344 C275.93283425 460.66721311 270.25380844 453.30569047 264.5 446 C258.21687219 438.02222536 252.02914152 429.9730301 245.87109375 421.8984375 C240.36937496 414.68669185 234.84598345 407.49593823 229.23022461 400.37255859 C220.28833412 389.02935208 211.44800446 377.60897191 202.69067383 366.12280273 C198.82235857 361.05632103 194.90239914 356.03323963 190.95458984 351.02856445 C186.66336192 345.58501884 182.43737534 340.09269591 178.22070312 334.59130859 C176.21342606 331.97462222 174.19983871 329.36279461 172.1875 326.75 C169.44207047 323.18381669 166.70281321 319.61304891 163.97265625 316.03515625 C156.62895095 306.41132166 149.2268258 296.83520665 141.78369141 287.28808594 C138.77046581 283.42277656 135.75982424 279.5554583 132.75 275.6875 C132.16951904 274.94161621 131.58903809 274.19573242 130.9909668 273.42724609 C126.66747924 267.86786181 122.36861598 262.29008742 118.0859375 256.69921875 C116.66665873 254.86266139 115.21171242 253.05324224 113.7265625 251.26953125 C112 249 112 249 112 247 C112.60793113 246.99761165 113.21586226 246.99522329 113.84221554 246.99276257 C128.71109092 246.93333789 143.57981834 246.85761567 158.44851589 246.76428509 C165.63924623 246.71953225 172.82992929 246.68007186 180.02075195 246.65356445 C186.29642842 246.63041656 192.57195269 246.59683575 198.84750801 246.55129844 C202.16299833 246.52758945 205.4783115 246.51027413 208.79388237 246.50238609 C238.91831504 246.42352565 264.09379716 242.51393002 287 221 C302.24562865 205.64117398 309.82475403 185.03086296 310.03515625 163.3828125 C309.21036753 144.35232153 304.1408635 123.030245 290.24609375 109.2734375 C288 107 288 107 288 105 C287.4121875 104.73574219 286.824375 104.47148437 286.21875 104.19921875 C283.92225788 102.95798093 282.37931647 101.61351162 280.5 99.8125 C233.41273992 58.09180265 112.22312703 79.22625454 81 79 C81 215.29 81 351.58 81 492 C69.78 492 58.56 492 47 492 C37 479 37 479 32.6875 473.1875 C29.10804159 468.38748422 25.3660242 463.74876246 21.5625 459.125 C17.04948259 453.63281667 12.79983222 448.0379735 8.73193359 442.21044922 C5.71270787 437.91614301 2.50117828 433.82023074 -0.8125 429.75 C-5.87710456 423.52047913 -10.60876461 417.09621273 -15.27563477 410.56494141 C-19.29820699 404.94290199 -23.44940561 399.44499662 -27.6875 393.984375 C-33.866933 386.00956619 -39.8337807 377.87548685 -45.8125 369.75 C-58.35940484 352.61449177 -58.35940484 352.61449177 -71.57421875 335.99609375 C-75.29890006 331.39572247 -78.85107405 326.66375389 -82.39624023 321.92407227 C-85.37459095 317.97873051 -88.40468022 314.3955798 -92 311 C-98.65527314 321.34802952 -105.27941975 331.69619398 -111.5 342.3125 C-116.90522258 351.50034308 -122.85103502 360.29438009 -128.8125 369.125 C-137.61280957 382.16734001 -145.66774794 395.4259617 -153.37890625 409.14501953 C-155.90839777 413.5998198 -158.53013786 417.99554843 -161.1875 422.375 C-161.62151123 423.10066162 -162.05552246 423.82632324 -162.50268555 424.57397461 C-162.907854 425.23792236 -163.31302246 425.90187012 -163.73046875 426.5859375 C-164.07489014 427.1536084 -164.41931152 427.7212793 -164.77416992 428.30615234 C-166.31290669 430.43237335 -168.11117535 432.18388927 -170 434 C-170.41660889 433.08637695 -170.83321777 432.17275391 -171.26245117 431.23144531 C-178.31934343 415.75918418 -185.37965649 400.28929385 -192.5625 384.875 C-197.34450688 374.6070246 -202.06510822 364.31257675 -206.75 354 C-207.23052826 352.94255081 -207.23052826 352.94255081 -207.72076416 351.86373901 C-210.72082721 345.25945873 -213.71503101 338.65286194 -216.66796875 332.02734375 C-220.29671007 323.88631517 -224.02712155 315.84329998 -228.06787109 307.89819336 C-230.37903671 303.32408232 -232.51065161 298.69560747 -234.5625 294 C-238.26446503 285.53176678 -242.18457457 277.17140668 -246.125 268.8125 C-251.21937813 257.99966927 -256.22704306 247.15322281 -261.125 236.25 C-265.97142568 225.46446127 -270.88995947 214.71652465 -275.88623047 203.99926758 C-280.54679027 193.99657804 -285.15096725 183.96859028 -289.75 173.9375 C-294.30977886 163.99311509 -298.88380211 154.05961155 -303.61035156 144.19311523 C-307.69527739 135.61847747 -311.57931973 126.95098714 -315.49655151 118.29888916 C-319.48689023 109.48728598 -323.52545805 100.70694895 -327.71435547 91.98754883 C-330.99238099 85.11662874 -334.05371502 78.15276087 -337.125 71.1875 C-340.60498227 63.3002235 -344.14960247 55.51124655 -348.08984375 47.84375 C-352.49593816 39.12504614 -356.43150072 30.15974055 -360.49267578 21.27685547 C-361.5543927 18.96873036 -362.62444396 16.66617008 -363.70654297 14.36767578 C-364.25584473 13.19575684 -364.80514648 12.02383789 -365.37109375 10.81640625 C-365.87439209 9.7497876 -366.37769043 8.68316895 -366.89624023 7.58422852 C-368 5 -368 5 -368 3 C-338.63 2.67 -309.26 2.34 -279 2 C-260.58264718 42.62651357 -260.58264718 42.62651357 -251.625 62.875 C-246.43976063 74.59347812 -241.1397497 86.24736106 -235.71459961 97.85693359 C-226.07539411 118.51003605 -216.9320963 139.39254216 -207.68066406 160.22143555 C-198.67199573 180.55124136 -198.67199573 180.55124136 -189.375 200.75 C-187.00252784 205.80106975 -184.72008933 210.8803152 -182.5 216 C-180.07768479 221.58113165 -177.58010965 227.11791159 -174.98974609 232.6237793 C-171.28121462 240.50876022 -167.64528411 248.42727901 -163.99926758 256.34130859 C-163.24552856 257.97640381 -163.24552856 257.97640381 -162.4765625 259.64453125 C-162.02361816 260.62784424 -161.57067383 261.61115723 -161.10400391 262.62426758 C-160.42196365 264.09196632 -159.72378429 265.55243141 -159 267 C-158.67950684 266.52916992 -158.35901367 266.05833984 -158.02880859 265.57324219 C-151.08433098 255.37883749 -144.07140069 245.23852971 -136.96582031 235.15576172 C-133.56117004 230.30112422 -130.28009614 225.39491376 -127.125 220.375 C-124.10550009 215.60795069 -120.88800572 211.23198693 -117.296875 206.88671875 C-114.23396623 203.03724668 -111.3702057 199.05679112 -108.5 195.0625 C-107.93982178 194.28438965 -107.37964355 193.5062793 -106.80249023 192.70458984 C-104.33977631 189.27779723 -101.88693878 185.84466641 -99.45703125 182.39453125 C-98.74933594 181.39808594 -98.04164063 180.40164063 -97.3125 179.375 C-96.40951172 178.08722656 -96.40951172 178.08722656 -95.48828125 176.7734375 C-94.99714844 176.18820312 -94.50601562 175.60296875 -94 175 C-93.34 175 -92.68 175 -92 175 C-90.16886771 177.2551193 -88.45027514 179.52352659 -86.75 181.875 C-85.6655706 183.34876713 -84.57957138 184.82138016 -83.4921875 186.29296875 C-82.92209961 187.06560059 -82.35201172 187.83823242 -81.76464844 188.63427734 C-78.85873342 192.53000459 -75.86826605 196.35872301 -72.875 200.1875 C-71.69002556 201.70566782 -70.50512834 203.22389591 -69.3203125 204.7421875 C-68.75602539 205.4650293 -68.19173828 206.18787109 -67.61035156 206.93261719 C-65.31177731 209.88354605 -63.02847088 212.84603452 -60.75 215.8125 C-59.9559375 216.84632813 -59.161875 217.88015625 -58.34375 218.9453125 C-56.78125 220.98177083 -55.21875 223.01822917 -53.65625 225.0546875 C-52.8621875 226.08851563 -52.068125 227.12234375 -51.25 228.1875 C-50.84604004 228.7134375 -50.44208008 229.239375 -50.02587891 229.78125 C-47.58883836 232.94930887 -45.13922782 236.1071849 -42.6796875 239.2578125 C-37.01137457 246.51979765 -31.37357832 253.79583452 -25.875 261.1875 C-21.43530994 267.15425969 -16.86754681 273.00144456 -12.18310547 278.77807617 C-9.66992837 281.88235604 -7.21677372 285.0190607 -4.82568359 288.21875 C-4.29397552 288.92966797 -3.76226746 289.64058594 -3.21444702 290.37304688 C-2.8136795 290.90994141 -2.41291199 291.44683594 -2 292 C-1.04065253 260.72606951 -0.79895196 229.46276703 -0.70291888 198.17557183 C-0.68159353 191.28479269 -0.65526224 184.39403486 -0.62875474 177.50327403 C-0.58164698 165.22493099 -0.53823802 152.94657799 -0.49731445 140.66821289 C-0.45766406 128.77432488 -0.41617249 116.88044553 -0.37231445 104.98657227 C-0.36822804 103.87812593 -0.36822804 103.87812593 -0.36405908 102.74728673 C-0.3503748 99.03838075 -0.33665548 95.3294749 -0.32291877 91.62056911 C-0.20985181 61.08039762 -0.10291845 30.54020748 0 0 Z " fill="#000000" transform="translate(493,265)"/>
<path d="M0 0 C138 0 138 0 145 1 C145 1.33 145 1.66 145 2 C133.88553693 2.13397342 122.77103805 2.26446826 111.65648937 2.39115143 C106.48899086 2.45014629 101.32150837 2.51010723 96.15405273 2.57275391 C64.76511085 2.95023781 33.39439382 3 2 3 C2 110.25 2 217.5 2 328 C1.67 328 1.34 328 1 328 C0.67 219.76 0.34 111.52 0 0 Z " fill="#F1F1F1" transform="translate(574,344)"/>
</svg>
